<mxfile host="app.diagrams.net" modified="2023-11-23T20:02:29.573Z" agent="Mozilla/5.0 (Windows NT 10.0; Win64; x64) AppleWebKit/537.36 (KHTML, like Gecko) Chrome/118.0.0.0 Safari/537.36 OPR/104.0.0.0 (Edition Yx GX)" etag="zr2VeRSKpDcbkPmGJ5w4" version="22.1.3" type="github">
  <diagram id="C5RBs43oDa-KdzZeNtuy" name="Page-1">
    <mxGraphModel dx="3363" dy="3106" grid="1" gridSize="10" guides="1" tooltips="1" connect="1" arrows="1" fold="1" page="1" pageScale="1" pageWidth="827" pageHeight="1169" math="0" shadow="0">
      <root>
        <mxCell id="WIyWlLk6GJQsqaUBKTNV-0" />
        <mxCell id="WIyWlLk6GJQsqaUBKTNV-1" parent="WIyWlLk6GJQsqaUBKTNV-0" />
        <mxCell id="7tsFRYca-VZK3Yaf07nr-162" value="" style="endArrow=none;html=1;rounded=0;exitX=0.5;exitY=1;exitDx=0;exitDy=0;endFill=0;jumpStyle=arc;" parent="WIyWlLk6GJQsqaUBKTNV-1" edge="1">
          <mxGeometry width="50" height="50" relative="1" as="geometry">
            <mxPoint x="562.8200000000002" y="545.0000000000002" as="sourcePoint" />
            <mxPoint x="563" y="614" as="targetPoint" />
          </mxGeometry>
        </mxCell>
        <mxCell id="7tsFRYca-VZK3Yaf07nr-63" value="" style="edgeStyle=orthogonalEdgeStyle;rounded=0;orthogonalLoop=1;jettySize=auto;html=1;" parent="WIyWlLk6GJQsqaUBKTNV-1" source="7tsFRYca-VZK3Yaf07nr-64" edge="1">
          <mxGeometry relative="1" as="geometry">
            <mxPoint x="310" y="-370" as="targetPoint" />
          </mxGeometry>
        </mxCell>
        <mxCell id="7tsFRYca-VZK3Yaf07nr-64" value="&lt;p style=&quot;line-height: 110%;&quot;&gt;&lt;span style=&quot;font-size: 18px;&quot;&gt;solve&lt;/span&gt;&lt;/p&gt;" style="ellipse;whiteSpace=wrap;html=1;" parent="WIyWlLk6GJQsqaUBKTNV-1" vertex="1">
          <mxGeometry x="255" y="-470" width="110" height="60" as="geometry" />
        </mxCell>
        <mxCell id="7tsFRYca-VZK3Yaf07nr-65" value="&lt;span style=&quot;font-size: 25px;&quot;&gt;Ввод &lt;br&gt;s&lt;br&gt;&lt;/span&gt;" style="shape=parallelogram;perimeter=parallelogramPerimeter;whiteSpace=wrap;html=1;fixedSize=1;" parent="WIyWlLk6GJQsqaUBKTNV-1" vertex="1">
          <mxGeometry x="250" y="-369" width="120" height="60" as="geometry" />
        </mxCell>
        <mxCell id="7tsFRYca-VZK3Yaf07nr-126" value="summ = 0" style="rounded=0;whiteSpace=wrap;html=1;fontSize=20;" parent="WIyWlLk6GJQsqaUBKTNV-1" vertex="1">
          <mxGeometry x="237.18" y="-260" width="145.64" height="51" as="geometry" />
        </mxCell>
        <mxCell id="7tsFRYca-VZK3Yaf07nr-127" value="" style="edgeStyle=orthogonalEdgeStyle;rounded=0;orthogonalLoop=1;jettySize=auto;html=1;exitX=0.5;exitY=1;exitDx=0;exitDy=0;entryX=0.5;entryY=0;entryDx=0;entryDy=0;" parent="WIyWlLk6GJQsqaUBKTNV-1" source="7tsFRYca-VZK3Yaf07nr-65" target="7tsFRYca-VZK3Yaf07nr-126" edge="1">
          <mxGeometry relative="1" as="geometry">
            <mxPoint x="320" y="-360" as="targetPoint" />
            <mxPoint x="320" y="-400" as="sourcePoint" />
          </mxGeometry>
        </mxCell>
        <mxCell id="7tsFRYca-VZK3Yaf07nr-128" value="op = &#39;+&#39;" style="rounded=0;whiteSpace=wrap;html=1;fontSize=20;" parent="WIyWlLk6GJQsqaUBKTNV-1" vertex="1">
          <mxGeometry x="237.18" y="-160" width="145.64" height="51" as="geometry" />
        </mxCell>
        <mxCell id="7tsFRYca-VZK3Yaf07nr-129" value="" style="edgeStyle=orthogonalEdgeStyle;rounded=0;orthogonalLoop=1;jettySize=auto;html=1;exitX=0.5;exitY=1;exitDx=0;exitDy=0;entryX=0.5;entryY=0;entryDx=0;entryDy=0;" parent="WIyWlLk6GJQsqaUBKTNV-1" source="7tsFRYca-VZK3Yaf07nr-126" target="7tsFRYca-VZK3Yaf07nr-128" edge="1">
          <mxGeometry relative="1" as="geometry">
            <mxPoint x="330" y="-111" as="targetPoint" />
            <mxPoint x="330" y="-160" as="sourcePoint" />
          </mxGeometry>
        </mxCell>
        <mxCell id="7tsFRYca-VZK3Yaf07nr-130" value="t = strtok(s, &quot;\t &quot;)" style="rounded=0;whiteSpace=wrap;html=1;fontSize=20;" parent="WIyWlLk6GJQsqaUBKTNV-1" vertex="1">
          <mxGeometry x="213.41" y="-60" width="192.82" height="51" as="geometry" />
        </mxCell>
        <mxCell id="7tsFRYca-VZK3Yaf07nr-131" value="" style="edgeStyle=orthogonalEdgeStyle;rounded=0;orthogonalLoop=1;jettySize=auto;html=1;exitX=0.5;exitY=1;exitDx=0;exitDy=0;entryX=0.5;entryY=0;entryDx=0;entryDy=0;" parent="WIyWlLk6GJQsqaUBKTNV-1" source="7tsFRYca-VZK3Yaf07nr-128" target="7tsFRYca-VZK3Yaf07nr-130" edge="1">
          <mxGeometry relative="1" as="geometry">
            <mxPoint x="320" y="-150" as="targetPoint" />
            <mxPoint x="320" y="-199" as="sourcePoint" />
          </mxGeometry>
        </mxCell>
        <mxCell id="7tsFRYca-VZK3Yaf07nr-132" value="" style="edgeStyle=orthogonalEdgeStyle;rounded=0;orthogonalLoop=1;jettySize=auto;html=1;exitX=0.5;exitY=1;exitDx=0;exitDy=0;" parent="WIyWlLk6GJQsqaUBKTNV-1" source="7tsFRYca-VZK3Yaf07nr-130" edge="1">
          <mxGeometry relative="1" as="geometry">
            <mxPoint x="310" y="40" as="targetPoint" />
            <mxPoint x="320" y="-99" as="sourcePoint" />
          </mxGeometry>
        </mxCell>
        <mxCell id="7tsFRYca-VZK3Yaf07nr-133" value="&lt;span style=&quot;font-size: 20px;&quot;&gt;t == NULL&lt;/span&gt;" style="rhombus;whiteSpace=wrap;html=1;" parent="WIyWlLk6GJQsqaUBKTNV-1" vertex="1">
          <mxGeometry x="239.82" y="39.5" width="140" height="100.5" as="geometry" />
        </mxCell>
        <mxCell id="7tsFRYca-VZK3Yaf07nr-141" value="" style="endArrow=classic;html=1;rounded=0;exitX=0;exitY=0.5;exitDx=0;exitDy=0;endFill=1;entryX=0.5;entryY=0;entryDx=0;entryDy=0;" parent="WIyWlLk6GJQsqaUBKTNV-1" target="7tsFRYca-VZK3Yaf07nr-140" edge="1">
          <mxGeometry width="50" height="50" relative="1" as="geometry">
            <mxPoint x="239.82000000000005" y="90" as="sourcePoint" />
            <mxPoint x="115.82000000000005" y="183" as="targetPoint" />
            <Array as="points">
              <mxPoint x="115.82000000000005" y="90" />
            </Array>
          </mxGeometry>
        </mxCell>
        <mxCell id="oIy2jhifB-oIK3pfG0yV-0" value="Да" style="edgeLabel;html=1;align=center;verticalAlign=middle;resizable=0;points=[];fontSize=20;fontFamily=Architects Daughter;" parent="7tsFRYca-VZK3Yaf07nr-141" vertex="1" connectable="0">
          <mxGeometry x="-0.2959" y="-2" relative="1" as="geometry">
            <mxPoint x="1" as="offset" />
          </mxGeometry>
        </mxCell>
        <mxCell id="7tsFRYca-VZK3Yaf07nr-140" value="&lt;span style=&quot;font-size: 25px;&quot;&gt;Вывод&lt;br&gt;s&lt;br&gt;&lt;/span&gt;" style="shape=parallelogram;perimeter=parallelogramPerimeter;whiteSpace=wrap;html=1;fixedSize=1;" parent="WIyWlLk6GJQsqaUBKTNV-1" vertex="1">
          <mxGeometry x="56" y="145" width="120" height="60" as="geometry" />
        </mxCell>
        <mxCell id="7tsFRYca-VZK3Yaf07nr-142" value="" style="edgeStyle=orthogonalEdgeStyle;rounded=0;orthogonalLoop=1;jettySize=auto;html=1;exitX=0.5;exitY=1;exitDx=0;exitDy=0;" parent="WIyWlLk6GJQsqaUBKTNV-1" edge="1">
          <mxGeometry relative="1" as="geometry">
            <mxPoint x="115.55000000000001" y="254" as="targetPoint" />
            <mxPoint x="115.55000000000001" y="205" as="sourcePoint" />
          </mxGeometry>
        </mxCell>
        <mxCell id="7tsFRYca-VZK3Yaf07nr-143" value="&lt;p style=&quot;line-height: 110%;&quot;&gt;&lt;span style=&quot;font-size: 18px;&quot;&gt;Конец&lt;/span&gt;&lt;/p&gt;" style="ellipse;whiteSpace=wrap;html=1;" parent="WIyWlLk6GJQsqaUBKTNV-1" vertex="1">
          <mxGeometry x="60" y="253" width="110" height="60" as="geometry" />
        </mxCell>
        <mxCell id="7tsFRYca-VZK3Yaf07nr-144" value="" style="edgeStyle=orthogonalEdgeStyle;rounded=0;orthogonalLoop=1;jettySize=auto;html=1;exitX=1;exitY=0.5;exitDx=0;exitDy=0;entryX=0.5;entryY=0;entryDx=0;entryDy=0;" parent="WIyWlLk6GJQsqaUBKTNV-1" target="7tsFRYca-VZK3Yaf07nr-145" edge="1">
          <mxGeometry relative="1" as="geometry">
            <mxPoint x="380" y="90" as="sourcePoint" />
            <mxPoint x="444" y="140" as="targetPoint" />
            <Array as="points">
              <mxPoint x="510" y="90" />
            </Array>
          </mxGeometry>
        </mxCell>
        <mxCell id="7tsFRYca-VZK3Yaf07nr-145" value="&lt;span style=&quot;font-size: 20px;&quot;&gt;strlen(t) == 1 ||&lt;br&gt;t[0] == &#39;+&#39; || t[0] == &#39;-&#39;&lt;br&gt;&lt;/span&gt;" style="rhombus;whiteSpace=wrap;html=1;" parent="WIyWlLk6GJQsqaUBKTNV-1" vertex="1">
          <mxGeometry x="382.82" y="105" width="253" height="140" as="geometry" />
        </mxCell>
        <mxCell id="7tsFRYca-VZK3Yaf07nr-148" value="&#xa;&lt;div style=&quot;color: rgb(204, 204, 204); background-color: rgb(31, 31, 31); font-family: Consolas, &amp;quot;Courier New&amp;quot;, monospace; font-weight: normal; font-size: 14px; line-height: 19px;&quot;&gt;&lt;br&gt;&lt;/div&gt;&#xa;&#xa;" style="endArrow=classic;html=1;rounded=0;exitX=0;exitY=0.5;exitDx=0;exitDy=0;entryX=0.5;entryY=0;entryDx=0;entryDy=0;" parent="WIyWlLk6GJQsqaUBKTNV-1" source="7tsFRYca-VZK3Yaf07nr-145" target="7tsFRYca-VZK3Yaf07nr-149" edge="1">
          <mxGeometry width="50" height="50" relative="1" as="geometry">
            <mxPoint x="397.0000000000001" y="196.49999999999955" as="sourcePoint" />
            <mxPoint x="310" y="250" as="targetPoint" />
            <Array as="points">
              <mxPoint x="310" y="175" />
            </Array>
          </mxGeometry>
        </mxCell>
        <mxCell id="8qK4rQeEuRGcYUuYz-9D-1" style="edgeStyle=orthogonalEdgeStyle;rounded=0;orthogonalLoop=1;jettySize=auto;html=1;exitX=0.5;exitY=1;exitDx=0;exitDy=0;" parent="WIyWlLk6GJQsqaUBKTNV-1" edge="1">
          <mxGeometry relative="1" as="geometry">
            <mxPoint x="310.42857142857156" y="615" as="targetPoint" />
            <mxPoint x="309.8199999999997" y="308" as="sourcePoint" />
          </mxGeometry>
        </mxCell>
        <mxCell id="7tsFRYca-VZK3Yaf07nr-149" value="op = t" style="rounded=0;whiteSpace=wrap;html=1;fontSize=20;" parent="WIyWlLk6GJQsqaUBKTNV-1" vertex="1">
          <mxGeometry x="237.0000000000001" y="262" width="145.64" height="51" as="geometry" />
        </mxCell>
        <mxCell id="7tsFRYca-VZK3Yaf07nr-151" value="" style="edgeStyle=orthogonalEdgeStyle;rounded=0;orthogonalLoop=1;jettySize=auto;html=1;exitX=1;exitY=0.5;exitDx=0;exitDy=0;entryX=0.5;entryY=0;entryDx=0;entryDy=0;" parent="WIyWlLk6GJQsqaUBKTNV-1" source="7tsFRYca-VZK3Yaf07nr-145" target="7tsFRYca-VZK3Yaf07nr-152" edge="1">
          <mxGeometry relative="1" as="geometry">
            <mxPoint x="390" y="100" as="sourcePoint" />
            <mxPoint x="720" y="250" as="targetPoint" />
            <Array as="points">
              <mxPoint x="723" y="175" />
            </Array>
          </mxGeometry>
        </mxCell>
        <mxCell id="7tsFRYca-VZK3Yaf07nr-152" value="num = atoi(t)" style="rounded=0;whiteSpace=wrap;html=1;fontSize=20;" parent="WIyWlLk6GJQsqaUBKTNV-1" vertex="1">
          <mxGeometry x="650" y="262" width="145.64" height="51" as="geometry" />
        </mxCell>
        <mxCell id="7tsFRYca-VZK3Yaf07nr-153" value="&lt;span style=&quot;font-size: 20px;&quot;&gt;op == &#39;+&#39;&lt;/span&gt;" style="rhombus;whiteSpace=wrap;html=1;" parent="WIyWlLk6GJQsqaUBKTNV-1" vertex="1">
          <mxGeometry x="663.41" y="370" width="118.82" height="80" as="geometry" />
        </mxCell>
        <mxCell id="7tsFRYca-VZK3Yaf07nr-154" value="" style="edgeStyle=orthogonalEdgeStyle;rounded=0;orthogonalLoop=1;jettySize=auto;html=1;entryX=0.5;entryY=0;entryDx=0;entryDy=0;exitX=0.5;exitY=1;exitDx=0;exitDy=0;" parent="WIyWlLk6GJQsqaUBKTNV-1" source="7tsFRYca-VZK3Yaf07nr-152" target="7tsFRYca-VZK3Yaf07nr-153" edge="1">
          <mxGeometry relative="1" as="geometry">
            <mxPoint x="1319" y="231" as="sourcePoint" />
            <mxPoint x="1319" y="300" as="targetPoint" />
          </mxGeometry>
        </mxCell>
        <mxCell id="7tsFRYca-VZK3Yaf07nr-155" value="" style="edgeStyle=orthogonalEdgeStyle;rounded=0;orthogonalLoop=1;jettySize=auto;html=1;exitX=1;exitY=0.5;exitDx=0;exitDy=0;entryX=0.5;entryY=0;entryDx=0;entryDy=0;" parent="WIyWlLk6GJQsqaUBKTNV-1" edge="1">
          <mxGeometry relative="1" as="geometry">
            <mxPoint x="782.23" y="410" as="sourcePoint" />
            <mxPoint x="882.23" y="497" as="targetPoint" />
            <Array as="points">
              <mxPoint x="882.23" y="410" />
            </Array>
          </mxGeometry>
        </mxCell>
        <mxCell id="7tsFRYca-VZK3Yaf07nr-156" value="" style="edgeStyle=orthogonalEdgeStyle;rounded=0;orthogonalLoop=1;jettySize=auto;html=1;exitX=0;exitY=0.5;exitDx=0;exitDy=0;" parent="WIyWlLk6GJQsqaUBKTNV-1" source="7tsFRYca-VZK3Yaf07nr-153" edge="1">
          <mxGeometry relative="1" as="geometry">
            <mxPoint x="364" y="420" as="sourcePoint" />
            <mxPoint x="560" y="500" as="targetPoint" />
            <Array as="points">
              <mxPoint x="560" y="410" />
            </Array>
          </mxGeometry>
        </mxCell>
        <mxCell id="7tsFRYca-VZK3Yaf07nr-157" value="summ += num" style="rounded=0;whiteSpace=wrap;html=1;fontSize=20;" parent="WIyWlLk6GJQsqaUBKTNV-1" vertex="1">
          <mxGeometry x="490.0000000000001" y="500" width="145.64" height="51" as="geometry" />
        </mxCell>
        <mxCell id="7tsFRYca-VZK3Yaf07nr-158" value="summ -= num" style="rounded=0;whiteSpace=wrap;html=1;fontSize=20;" parent="WIyWlLk6GJQsqaUBKTNV-1" vertex="1">
          <mxGeometry x="810.0000000000001" y="500" width="145.64" height="51" as="geometry" />
        </mxCell>
        <mxCell id="7tsFRYca-VZK3Yaf07nr-160" value="" style="edgeStyle=orthogonalEdgeStyle;rounded=0;orthogonalLoop=1;jettySize=auto;html=1;exitX=0.5;exitY=1;exitDx=0;exitDy=0;" parent="WIyWlLk6GJQsqaUBKTNV-1" source="7tsFRYca-VZK3Yaf07nr-158" edge="1">
          <mxGeometry relative="1" as="geometry">
            <mxPoint x="882.8199999999997" y="554.9999999999995" as="sourcePoint" />
            <mxPoint x="310" y="-86" as="targetPoint" />
            <Array as="points">
              <mxPoint x="883" y="614" />
              <mxPoint x="20" y="614" />
              <mxPoint x="20" y="-86" />
            </Array>
          </mxGeometry>
        </mxCell>
        <mxCell id="IebVEn4VNbAc_iuxsN8R-0" value="&lt;p style=&quot;line-height: 110%;&quot;&gt;&lt;span style=&quot;font-size: 18px;&quot;&gt;id&lt;/span&gt;&lt;/p&gt;" style="ellipse;whiteSpace=wrap;html=1;" parent="WIyWlLk6GJQsqaUBKTNV-1" vertex="1">
          <mxGeometry x="1122.07" y="-470" width="110" height="60" as="geometry" />
        </mxCell>
        <mxCell id="IebVEn4VNbAc_iuxsN8R-1" value="&lt;span style=&quot;font-size: 25px;&quot;&gt;Ввод &lt;br&gt;s&lt;br&gt;&lt;/span&gt;" style="shape=parallelogram;perimeter=parallelogramPerimeter;whiteSpace=wrap;html=1;fixedSize=1;" parent="WIyWlLk6GJQsqaUBKTNV-1" vertex="1">
          <mxGeometry x="1117.07" y="-369" width="120" height="60" as="geometry" />
        </mxCell>
        <mxCell id="IebVEn4VNbAc_iuxsN8R-2" value="" style="endArrow=classic;html=1;rounded=0;exitX=0.5;exitY=1;exitDx=0;exitDy=0;entryX=0.5;entryY=0;entryDx=0;entryDy=0;" parent="WIyWlLk6GJQsqaUBKTNV-1" source="IebVEn4VNbAc_iuxsN8R-0" target="IebVEn4VNbAc_iuxsN8R-1" edge="1">
          <mxGeometry width="50" height="50" relative="1" as="geometry">
            <mxPoint x="1142.07" y="-370" as="sourcePoint" />
            <mxPoint x="1192.07" y="-420" as="targetPoint" />
          </mxGeometry>
        </mxCell>
        <mxCell id="IebVEn4VNbAc_iuxsN8R-3" value="n = solve(s)" style="rounded=0;whiteSpace=wrap;html=1;fontSize=20;" parent="WIyWlLk6GJQsqaUBKTNV-1" vertex="1">
          <mxGeometry x="1104.25" y="-70" width="145.64" height="51" as="geometry" />
        </mxCell>
        <mxCell id="IebVEn4VNbAc_iuxsN8R-4" value="" style="edgeStyle=orthogonalEdgeStyle;rounded=0;orthogonalLoop=1;jettySize=auto;html=1;entryX=0.5;entryY=0;entryDx=0;entryDy=0;exitX=0.5;exitY=1;exitDx=0;exitDy=0;" parent="WIyWlLk6GJQsqaUBKTNV-1" source="IebVEn4VNbAc_iuxsN8R-15" target="IebVEn4VNbAc_iuxsN8R-3" edge="1">
          <mxGeometry relative="1" as="geometry">
            <mxPoint x="1187.07" y="-251" as="targetPoint" />
            <mxPoint x="1177.07" y="-130" as="sourcePoint" />
          </mxGeometry>
        </mxCell>
        <mxCell id="IebVEn4VNbAc_iuxsN8R-5" value="n_s = itoa(n)" style="rounded=0;whiteSpace=wrap;html=1;fontSize=20;" parent="WIyWlLk6GJQsqaUBKTNV-1" vertex="1">
          <mxGeometry x="1068.16" y="30" width="217.82" height="51" as="geometry" />
        </mxCell>
        <mxCell id="IebVEn4VNbAc_iuxsN8R-6" value="" style="edgeStyle=orthogonalEdgeStyle;rounded=0;orthogonalLoop=1;jettySize=auto;html=1;exitX=0.5;exitY=1;exitDx=0;exitDy=0;entryX=0.5;entryY=0;entryDx=0;entryDy=0;" parent="WIyWlLk6GJQsqaUBKTNV-1" target="IebVEn4VNbAc_iuxsN8R-5" edge="1">
          <mxGeometry relative="1" as="geometry">
            <mxPoint x="1187.07" y="-70" as="targetPoint" />
            <mxPoint x="1177.07" y="-19" as="sourcePoint" />
          </mxGeometry>
        </mxCell>
        <mxCell id="IebVEn4VNbAc_iuxsN8R-7" value="res_s = strcat(&quot; = &quot;, n_s)" style="rounded=0;whiteSpace=wrap;html=1;fontSize=20;" parent="WIyWlLk6GJQsqaUBKTNV-1" vertex="1">
          <mxGeometry x="1055.11" y="130" width="243.91" height="51" as="geometry" />
        </mxCell>
        <mxCell id="IebVEn4VNbAc_iuxsN8R-8" value="" style="edgeStyle=orthogonalEdgeStyle;rounded=0;orthogonalLoop=1;jettySize=auto;html=1;exitX=0.5;exitY=1;exitDx=0;exitDy=0;entryX=0.5;entryY=0;entryDx=0;entryDy=0;" parent="WIyWlLk6GJQsqaUBKTNV-1" target="IebVEn4VNbAc_iuxsN8R-7" edge="1">
          <mxGeometry relative="1" as="geometry">
            <mxPoint x="1187.07" y="30" as="targetPoint" />
            <mxPoint x="1177.07" y="81" as="sourcePoint" />
          </mxGeometry>
        </mxCell>
        <mxCell id="IebVEn4VNbAc_iuxsN8R-9" value="" style="edgeStyle=orthogonalEdgeStyle;rounded=0;orthogonalLoop=1;jettySize=auto;html=1;exitX=0.5;exitY=1;exitDx=0;exitDy=0;entryX=0.5;entryY=0;entryDx=0;entryDy=0;" parent="WIyWlLk6GJQsqaUBKTNV-1" target="IebVEn4VNbAc_iuxsN8R-10" edge="1">
          <mxGeometry relative="1" as="geometry">
            <mxPoint x="1192.07" y="550.5" as="targetPoint" />
            <mxPoint x="1177.06" y="440.99999999999955" as="sourcePoint" />
          </mxGeometry>
        </mxCell>
        <mxCell id="IebVEn4VNbAc_iuxsN8R-10" value="&lt;span style=&quot;font-size: 25px;&quot;&gt;Вывод&lt;br&gt;res&lt;br&gt;&lt;/span&gt;" style="shape=parallelogram;perimeter=parallelogramPerimeter;whiteSpace=wrap;html=1;fixedSize=1;" parent="WIyWlLk6GJQsqaUBKTNV-1" vertex="1">
          <mxGeometry x="1117.07" y="495.5" width="120" height="60" as="geometry" />
        </mxCell>
        <mxCell id="IebVEn4VNbAc_iuxsN8R-11" value="res = strcat(s, res_s)" style="rounded=0;whiteSpace=wrap;html=1;fontSize=20;" parent="WIyWlLk6GJQsqaUBKTNV-1" vertex="1">
          <mxGeometry x="1073.15" y="253" width="207.82" height="51" as="geometry" />
        </mxCell>
        <mxCell id="IebVEn4VNbAc_iuxsN8R-12" value="" style="edgeStyle=orthogonalEdgeStyle;rounded=0;orthogonalLoop=1;jettySize=auto;html=1;exitX=0.5;exitY=1;exitDx=0;exitDy=0;entryX=0.5;entryY=0;entryDx=0;entryDy=0;" parent="WIyWlLk6GJQsqaUBKTNV-1" target="IebVEn4VNbAc_iuxsN8R-11" edge="1">
          <mxGeometry relative="1" as="geometry">
            <mxPoint x="1197.07" y="279" as="targetPoint" />
            <mxPoint x="1177.07" y="181" as="sourcePoint" />
          </mxGeometry>
        </mxCell>
        <mxCell id="IebVEn4VNbAc_iuxsN8R-13" value="tmp = malloc(strlen(s) + 1)" style="rounded=0;whiteSpace=wrap;html=1;fontSize=20;" parent="WIyWlLk6GJQsqaUBKTNV-1" vertex="1">
          <mxGeometry x="1023.1600000000001" y="-270" width="307.82" height="51" as="geometry" />
        </mxCell>
        <mxCell id="IebVEn4VNbAc_iuxsN8R-14" value="" style="edgeStyle=orthogonalEdgeStyle;rounded=0;orthogonalLoop=1;jettySize=auto;html=1;exitX=0.5;exitY=1;exitDx=0;exitDy=0;entryX=0.5;entryY=0;entryDx=0;entryDy=0;" parent="WIyWlLk6GJQsqaUBKTNV-1" target="IebVEn4VNbAc_iuxsN8R-13" edge="1">
          <mxGeometry relative="1" as="geometry">
            <mxPoint x="1187.07" y="-360" as="targetPoint" />
            <mxPoint x="1177.07" y="-309" as="sourcePoint" />
          </mxGeometry>
        </mxCell>
        <mxCell id="IebVEn4VNbAc_iuxsN8R-15" value="memcpy(tmp, s, strlen(s) + 1)" style="rounded=0;whiteSpace=wrap;html=1;fontSize=20;" parent="WIyWlLk6GJQsqaUBKTNV-1" vertex="1">
          <mxGeometry x="1023.1600000000001" y="-180" width="307.82" height="51" as="geometry" />
        </mxCell>
        <mxCell id="IebVEn4VNbAc_iuxsN8R-16" value="" style="edgeStyle=orthogonalEdgeStyle;rounded=0;orthogonalLoop=1;jettySize=auto;html=1;exitX=0.5;exitY=1;exitDx=0;exitDy=0;entryX=0.5;entryY=0;entryDx=0;entryDy=0;" parent="WIyWlLk6GJQsqaUBKTNV-1" target="IebVEn4VNbAc_iuxsN8R-15" edge="1">
          <mxGeometry relative="1" as="geometry">
            <mxPoint x="1187.07" y="-270" as="targetPoint" />
            <mxPoint x="1177.07" y="-219" as="sourcePoint" />
          </mxGeometry>
        </mxCell>
        <mxCell id="IebVEn4VNbAc_iuxsN8R-17" value="free(n_s), free(res_s), free(temp)" style="rounded=0;whiteSpace=wrap;html=1;fontSize=20;" parent="WIyWlLk6GJQsqaUBKTNV-1" vertex="1">
          <mxGeometry x="1009.9999999999998" y="390" width="334.14" height="51" as="geometry" />
        </mxCell>
        <mxCell id="IebVEn4VNbAc_iuxsN8R-18" value="" style="edgeStyle=orthogonalEdgeStyle;rounded=0;orthogonalLoop=1;jettySize=auto;html=1;exitX=0.5;exitY=1;exitDx=0;exitDy=0;entryX=0.5;entryY=0;entryDx=0;entryDy=0;" parent="WIyWlLk6GJQsqaUBKTNV-1" target="IebVEn4VNbAc_iuxsN8R-17" edge="1">
          <mxGeometry relative="1" as="geometry">
            <mxPoint x="1196.85" y="402" as="targetPoint" />
            <mxPoint x="1176.85" y="304" as="sourcePoint" />
          </mxGeometry>
        </mxCell>
        <mxCell id="IebVEn4VNbAc_iuxsN8R-19" value="" style="edgeStyle=orthogonalEdgeStyle;rounded=0;orthogonalLoop=1;jettySize=auto;html=1;exitX=0.5;exitY=1;exitDx=0;exitDy=0;" parent="WIyWlLk6GJQsqaUBKTNV-1" edge="1">
          <mxGeometry relative="1" as="geometry">
            <mxPoint x="1177.61" y="604.5" as="targetPoint" />
            <mxPoint x="1177.61" y="555.5" as="sourcePoint" />
          </mxGeometry>
        </mxCell>
        <mxCell id="IebVEn4VNbAc_iuxsN8R-20" value="&lt;p style=&quot;line-height: 110%;&quot;&gt;&lt;span style=&quot;font-size: 18px;&quot;&gt;Конец&lt;/span&gt;&lt;/p&gt;" style="ellipse;whiteSpace=wrap;html=1;" parent="WIyWlLk6GJQsqaUBKTNV-1" vertex="1">
          <mxGeometry x="1122.06" y="603.5" width="110" height="60" as="geometry" />
        </mxCell>
        <mxCell id="oIy2jhifB-oIK3pfG0yV-1" value="Да" style="edgeLabel;html=1;align=center;verticalAlign=middle;resizable=0;points=[];fontSize=20;fontFamily=Architects Daughter;" parent="WIyWlLk6GJQsqaUBKTNV-1" vertex="1" connectable="0">
          <mxGeometry x="351.00000000000017" y="175" as="geometry" />
        </mxCell>
        <mxCell id="oIy2jhifB-oIK3pfG0yV-2" value="Да" style="edgeLabel;html=1;align=center;verticalAlign=middle;resizable=0;points=[];fontSize=20;fontFamily=Architects Daughter;" parent="WIyWlLk6GJQsqaUBKTNV-1" vertex="1" connectable="0">
          <mxGeometry x="620.0000000000002" y="410" as="geometry" />
        </mxCell>
      </root>
    </mxGraphModel>
  </diagram>
</mxfile>
